<svg xmlns="http://www.w3.org/2000/svg" viewBox="0 0 568.05 165.74"><defs><style>.cls-1{fill:#3ebed4;}.cls-2{fill:#166976;}.cls-3{fill:#3db0c4;}.cls-4{fill:#8cd3f2;}.cls-5{font-size:93.06px;font-family:FrutigerNextLT-Bold, FrutigerNextLT;font-weight:700;letter-spacing:-0.04em;}.cls-5,.cls-6{fill:#fff;}</style></defs><title>Recurso 19</title><g id="Capa_2" data-name="Capa 2"><g id="Layer_1" data-name="Layer 1"><path class="cls-1" d="M548.77,13.19C544,10.36,513.56,5.6,364.24,5.6,219.07,5.6,36.4,10.24,16.52,12.05c-1.28.11-4.11,3.11-6.58,13.62C1.47,61.78,5.62,143,19.26,151.39c8.38,5.15,131.08,8.76,298.38,8.76,120.14,0,223.32-2,230-4.42,4.05-1.62,11.12-23.08,13.85-59.18C564.78,53.1,559.67,19.6,548.77,13.19Z"/><path class="cls-2" d="M551.61,8.37C548.09,6.3,537.38,0,364.24,0,218.94,0,36,4.66,16,6.47c-5,.46-8.8,6.32-11.53,17.92-7.81,33.3-6.38,120.55,11.84,131.76,14.46,8.9,234.28,9.59,301.31,9.59h0c88.45,0,223.23-1.28,232.06-4.81,12.54-5,16.91-57.94,17.36-63.95C569.86,60.18,567.26,17.58,551.61,8.37Zm9.88,88.18c-2.73,36.1-9.8,57.56-13.85,59.18-6.68,2.44-109.86,4.42-230,4.42-167.3,0-290-3.61-298.38-8.76C5.62,143,1.47,61.78,9.94,25.67c2.47-10.51,5.3-13.51,6.58-13.62C36.4,10.24,219.07,5.6,364.24,5.6c149.32,0,179.71,4.76,184.53,7.59C559.67,19.6,564.78,53.1,561.49,96.55Z"/><path class="cls-3" d="M547.64,155.73c3.15-1.26,8.14-14.58,11.49-37.48-37.33,12.37-78,11.7-117.47,10.81l-200.44-4.48c-42.68-1-85.77-2-127.22-12.2-27-6.66-53.69-17.66-73.41-37.22-16.19-16-26.88-38.65-26.35-61.1-1.31,1.94-2.86,5.5-4.3,11.61C1.47,61.78,5.62,143,19.26,151.39c8.38,5.15,131.08,8.76,298.38,8.76C437.78,160.15,541,158.17,547.64,155.73Z"/><path class="cls-4" d="M480.1,25.78c-.62-1.72-2.3-2.8-4-3.61-7.1-3.46-15.24-4-23.13-4.45l-33.67-2c-15-.88-30-1.75-44.87-.17a126.46,126.46,0,0,0-28.05,6.17c-3.47,1.21-7.61,3.94-6.55,7.46.84,2.78,4.34,3.56,7.23,3.87,41.36,4.35,83.43,8.68,124.29,1C475.9,33.18,481.65,30.08,480.1,25.78Z"/><path class="cls-4" d="M536.72,25.48c-.61-2.51-3.29-4-5.84-5C520.58,16.75,509,18,498.35,21c-2.24.62-4.59,1.38-6.11,3.06s-1.8,4.55,0,5.94a6.71,6.71,0,0,0,2.59,1,105,105,0,0,0,31,2.47,17.65,17.65,0,0,0,7.57-1.77C535.64,30.41,537.31,27.9,536.72,25.48Z"/><text class="cls-5" transform="translate(140.58 119.6)">JUGAR</text><path class="cls-6" d="M492.91,67c-7.26-6-14.31-12.35-22.12-17.58-1.75-1.17-3.52,1.37-2.18,2.81,4.73,5.05,10.08,9.47,15.27,14l7.8,6.84c3.05,2.68,9.16,5.29,6.11,9.12-8.82,11.06-17.72,22.09-26.25,33.38-2,2.71,2.54,6.23,4.69,3.63,5.9-7.14,11.58-14.46,17.33-21.71C496.81,93.42,506,85.68,506,80,506,74.61,496.4,69.87,492.91,67Z"/><path class="cls-6" d="M69,67c7.25-6,14.31-12.35,22.12-17.58,1.75-1.17,3.52,1.37,2.17,2.81-4.73,5.05-10.08,9.47-15.27,14l-7.8,6.84c-3,2.68-9.16,5.29-6.11,9.12,8.82,11.06,17.72,22.09,26.25,33.38,2,2.71-2.54,6.23-4.69,3.63-5.9-7.14-11.57-14.46-17.33-21.71C65.09,93.42,55.91,85.68,55.91,80,55.91,74.61,65.5,69.87,69,67Z"/></g></g></svg>