<svg xmlns="http://www.w3.org/2000/svg" viewBox="0 0 164.19 51.53"><defs><style>.cls-1{fill:#fff;}</style></defs><title>Recurso 2</title><g id="Capa_2" data-name="Capa 2"><g id="Layer_1" data-name="Layer 1"><path class="cls-1" d="M60.67,28.79l-5.41-9.43v9.43h-.93V18.24h1.29L61,27.67V18.24H62V28.79Z"/><path class="cls-1" d="M71.53,25.12a4.63,4.63,0,0,1-.26,1.58,3.45,3.45,0,0,1-.75,1.21,3.37,3.37,0,0,1-1.19.78,4.68,4.68,0,0,1-3.16,0A3.16,3.16,0,0,1,65,27.92a3.41,3.41,0,0,1-.74-1.22A4.63,4.63,0,0,1,64,25.12V18.24h.93v6.88a3,3,0,0,0,.73,2.15,3.17,3.17,0,0,0,4.23,0,3.09,3.09,0,0,0,.72-2.15V18.24h.94Z"/><path class="cls-1" d="M73.57,28.79V18.24h5v.85H74.5V23h3.88v.83H74.5v4.16h4.28v.85Z"/><path class="cls-1" d="M85.53,26a2.77,2.77,0,0,1-.27,1.25,2.67,2.67,0,0,1-.73.93,3.35,3.35,0,0,1-1.09.58,4.52,4.52,0,0,1-1.34.2,7.85,7.85,0,0,1-1.19-.1,4.29,4.29,0,0,1-1.14-.35l.08-1A3.21,3.21,0,0,0,81,28a5.25,5.25,0,0,0,1.2.13,2.81,2.81,0,0,0,1.7-.5A1.82,1.82,0,0,0,84.54,26a1.33,1.33,0,0,0-.16-.67,1.93,1.93,0,0,0-.41-.55,3.68,3.68,0,0,0-.6-.47,8.06,8.06,0,0,0-.72-.43l-1.09-.62a5.2,5.2,0,0,1-.7-.45,3.52,3.52,0,0,1-.61-.54,2.31,2.31,0,0,1-.41-.65,2.14,2.14,0,0,1-.15-.82A2.38,2.38,0,0,1,80,19.6a2.66,2.66,0,0,1,.75-.85,3.14,3.14,0,0,1,1.06-.5A4.16,4.16,0,0,1,83,18.08a6.87,6.87,0,0,1,1,.08,4.77,4.77,0,0,1,1,.25l-.1.95a2.91,2.91,0,0,0-.93-.31A5.85,5.85,0,0,0,83,19a4,4,0,0,0-.86.09,2.11,2.11,0,0,0-.72.3,1.7,1.7,0,0,0-.52.55,1.63,1.63,0,0,0-.2.84,1.4,1.4,0,0,0,.45,1.07,6.28,6.28,0,0,0,1.12.78l1.09.62c.28.15.55.32.81.49a4.09,4.09,0,0,1,.7.6,2.52,2.52,0,0,1,.5.75A2.25,2.25,0,0,1,85.53,26Z"/><path class="cls-1" d="M89.63,19.09v9.7H88.7v-9.7H85.61v-.85h7.12v.85Z"/><path class="cls-1" d="M99.11,28.79l-1.57-3.61a7,7,0,0,0-.36-.69,1.48,1.48,0,0,0-.39-.43,1.39,1.39,0,0,0-.54-.22,4.3,4.3,0,0,0-.79-.06H94.6v5h-.93V18.24H96.2a4.39,4.39,0,0,1,1.22.16,2.69,2.69,0,0,1,1,.49,2.36,2.36,0,0,1,.69.84A3,3,0,0,1,99.38,21a2.09,2.09,0,0,1-.2.91,2.42,2.42,0,0,1-.52.74,2.76,2.76,0,0,1-.75.51,3.22,3.22,0,0,1-.9.27,1.4,1.4,0,0,1,.84.45,3.78,3.78,0,0,1,.52.83l1.83,4.11Zm-.73-7.85a1.94,1.94,0,0,0-.2-.93,1.46,1.46,0,0,0-.57-.56,2.56,2.56,0,0,0-.82-.28,6.46,6.46,0,0,0-1-.08H94.6v3.83h1.11a4.47,4.47,0,0,0,1-.1,2.89,2.89,0,0,0,.85-.33,1.9,1.9,0,0,0,.62-.61A1.75,1.75,0,0,0,98.38,20.94Z"/><path class="cls-1" d="M108.62,28.79l-1.14-2.93h-5.36L101,28.79H100l4.26-10.55h1l4.27,10.55Zm-3.81-9.65L102.45,25h4.7Z"/><path class="cls-1" d="M0,51.28V36.14H3.36V51.28Z"/><path class="cls-1" d="M14.31,51.28,8.72,38.91V51.28h-3V36.14h4.91l5.61,12.4V36.14h3V51.28Z"/><path class="cls-1" d="M35,43.72a8.76,8.76,0,0,1-.59,3.35,6.33,6.33,0,0,1-1.67,2.36,6.87,6.87,0,0,1-2.6,1.4,12,12,0,0,1-3.39.45H21.62V36.14h5.61A8,8,0,0,1,32.94,38,7.49,7.49,0,0,1,35,43.72Zm-3.52,0a7.35,7.35,0,0,0-.29-2.1A4.65,4.65,0,0,0,30.28,40a4,4,0,0,0-1.46-1.1,5.19,5.19,0,0,0-2.09-.4H25V49h1.25C29.69,49,31.43,47.22,31.43,43.72Z"/><path class="cls-1" d="M36.6,51.28V36.14h9.88v2.31H39.9V42.4h6.29v2.32H39.9V49h6.79v2.31Z"/><path class="cls-1" d="M59.86,40.86a5.29,5.29,0,0,1-.4,2.11,4.13,4.13,0,0,1-1.1,1.51,4.78,4.78,0,0,1-1.66.91,6.8,6.8,0,0,1-2,.31h-3v5.58H48.37V36.14h6.38a6.58,6.58,0,0,1,2,.3,4.76,4.76,0,0,1,1.62.91,4.18,4.18,0,0,1,1.08,1.49A5,5,0,0,1,59.86,40.86Zm-3.39,0a2.46,2.46,0,0,0-.24-1.14,2.31,2.31,0,0,0-.64-.78,2.73,2.73,0,0,0-1-.44,4.79,4.79,0,0,0-1.16-.14H51.64v5h1.18a11.9,11.9,0,0,0,1.34-.08A3.89,3.89,0,0,0,55.33,43a2.14,2.14,0,0,0,.82-.76A2.48,2.48,0,0,0,56.47,40.88Z"/><path class="cls-1" d="M61.15,51.28V36.14H71v2.31H64.44V42.4h6.29v2.32H64.44V49h6.79v2.31Z"/><path class="cls-1" d="M81.47,51.28,75.89,38.91V51.28h-3V36.14h4.91l5.61,12.4V36.14h3V51.28Z"/><path class="cls-1" d="M102.11,43.72a8.57,8.57,0,0,1-.59,3.35,6.22,6.22,0,0,1-1.67,2.36,6.79,6.79,0,0,1-2.6,1.4,11.87,11.87,0,0,1-3.38.45H88.78V36.14h5.61A8,8,0,0,1,100.1,38,7.49,7.49,0,0,1,102.11,43.72Zm-3.52,0a7.36,7.36,0,0,0-.28-2.1A4.81,4.81,0,0,0,97.45,40,4.07,4.07,0,0,0,96,38.85a5.13,5.13,0,0,0-2.09-.4H92.14V49h1.25Q98.6,49,98.59,43.72Z"/><path class="cls-1" d="M103.77,51.28V36.14h9.88v2.31h-6.59V42.4h6.29v2.32h-6.29V49h6.79v2.31Z"/><path class="cls-1" d="M124.09,51.28l-5.58-12.37V51.28h-3V36.14h4.91l5.61,12.4V36.14h3V51.28Z"/><path class="cls-1" d="M142.78,50.9a8.26,8.26,0,0,1-1.87.48,13.47,13.47,0,0,1-2,.15,10.57,10.57,0,0,1-3.36-.51A7.19,7.19,0,0,1,133,49.51a6.82,6.82,0,0,1-1.7-2.45,8.5,8.5,0,0,1-.61-3.34,7.77,7.77,0,0,1,.64-3.21A7.57,7.57,0,0,1,133.06,38a7.75,7.75,0,0,1,2.64-1.57,9.35,9.35,0,0,1,3.24-.56,13,13,0,0,1,1.92.15,13.8,13.8,0,0,1,1.88.4L142.6,39a7.81,7.81,0,0,0-1.53-.46,9.13,9.13,0,0,0-1.6-.16,5.8,5.8,0,0,0-2.18.4,4.75,4.75,0,0,0-2.74,2.79,6.07,6.07,0,0,0-.38,2.17,6.36,6.36,0,0,0,.36,2.21,4.59,4.59,0,0,0,1,1.69,4.53,4.53,0,0,0,1.64,1.07,6,6,0,0,0,2.21.39,9.23,9.23,0,0,0,1.66-.15,6.88,6.88,0,0,0,1.58-.49Z"/><path class="cls-1" d="M144.19,51.28V36.14h3.36V51.28Z"/><path class="cls-1" d="M160.7,51.28l-1.34-3.79h-6.45l-1.36,3.79h-3.32L154,36.14h4.4l5.79,15.14Zm-4.54-13-2.57,6.92h5.06Z"/><path class="cls-1" d="M43.81,10.44a5.85,5.85,0,0,1-1.31.35,10.63,10.63,0,0,1-1.36.1,7.29,7.29,0,0,1-2.35-.36,5.21,5.21,0,0,1-1.82-1,4.76,4.76,0,0,1-1.18-1.71,5.87,5.87,0,0,1-.43-2.33,5.39,5.39,0,0,1,.45-2.23A5.1,5.1,0,0,1,37,1.49,5.36,5.36,0,0,1,38.87.39,6.52,6.52,0,0,1,41.14,0a9,9,0,0,1,1.33.1,9.42,9.42,0,0,1,1.31.28l-.1,1.76a4.86,4.86,0,0,0-1.06-.32,6.33,6.33,0,0,0-1.12-.11A3.88,3.88,0,0,0,40,2a3.44,3.44,0,0,0-1.16.76,3.5,3.5,0,0,0-.75,1.18,4.35,4.35,0,0,0-.26,1.51A4.46,4.46,0,0,0,38.06,7a3.14,3.14,0,0,0,.71,1.17,3.19,3.19,0,0,0,1.15.75,4.09,4.09,0,0,0,1.53.27,7.46,7.46,0,0,0,1.16-.1,5.47,5.47,0,0,0,1.11-.34Z"/><path class="cls-1" d="M44.79,10.71V.16h6.89V1.77H47.09V4.53h4.38V6.14H47.09v3h4.73v1.61Z"/><path class="cls-1" d="M53,10.71V.16h2.34V8.85h4.54v1.86Z"/><path class="cls-1" d="M60.68,10.71V.16h6.88V1.77H63V4.53h4.39V6.14H63v3h4.74v1.61Z"/><path class="cls-1" d="M76.93,7.74a2.87,2.87,0,0,1-.36,1.52,2.54,2.54,0,0,1-1,.91,4.06,4.06,0,0,1-1.34.43,9.84,9.84,0,0,1-1.53.11H68.88V.16h4.3a6.11,6.11,0,0,1,1.28.13A3.59,3.59,0,0,1,75.57.7a2.33,2.33,0,0,1,.79.8,2.46,2.46,0,0,1,.3,1.27,2.35,2.35,0,0,1-.55,1.63,2.87,2.87,0,0,1-1.52.84A3.07,3.07,0,0,1,76.26,6,2.22,2.22,0,0,1,76.93,7.74ZM74.34,3.05a1.36,1.36,0,0,0-.17-.69,1.24,1.24,0,0,0-.43-.45,1.8,1.8,0,0,0-.6-.24,3.26,3.26,0,0,0-.7-.07H71.12v3h1.13A3.94,3.94,0,0,0,73,4.55a2.1,2.1,0,0,0,.66-.25,1.38,1.38,0,0,0,.47-.49A1.36,1.36,0,0,0,74.34,3.05Zm.22,4.59a1.5,1.5,0,0,0-.22-.86,1.62,1.62,0,0,0-.56-.51A2.37,2.37,0,0,0,73,6,6.33,6.33,0,0,0,72.14,6h-1v3.3h1.11a4.47,4.47,0,0,0,.82-.07A2.21,2.21,0,0,0,73.8,9a1.52,1.52,0,0,0,.54-.5A1.36,1.36,0,0,0,74.56,7.64Z"/><path class="cls-1" d="M84.15,10.71l-1.09-3c-.1-.25-.19-.47-.27-.64a1.37,1.37,0,0,0-.32-.42A1.14,1.14,0,0,0,82,6.41a3.37,3.37,0,0,0-.7-.06h-.86v4.36H78.15V.16h4.3A6.45,6.45,0,0,1,83.78.3a3.51,3.51,0,0,1,1.14.47,2.42,2.42,0,0,1,.82.86A2.7,2.7,0,0,1,86.05,3a2.55,2.55,0,0,1-.19,1,2.17,2.17,0,0,1-.53.76,3,3,0,0,1-.77.52,3.76,3.76,0,0,1-1,.3A2,2,0,0,1,84.68,6a3.27,3.27,0,0,1,.61,1l1.36,3.62ZM83.69,3.2a1.49,1.49,0,0,0-.17-.75A1.29,1.29,0,0,0,83.05,2a2.26,2.26,0,0,0-.68-.21,5.36,5.36,0,0,0-.82-.06H80.43V4.78h1.06a4.25,4.25,0,0,0,.8-.07,2.24,2.24,0,0,0,.7-.25A1.59,1.59,0,0,0,83.5,4,1.4,1.4,0,0,0,83.69,3.2Z"/><path class="cls-1" d="M87.47,10.71V.16h6.88V1.77H89.77V4.53h4.38V6.14H89.77v3H94.5v1.61Z"/><path class="cls-1" d="M106,10.71l0-9-3.1,9.05h-2.06l-3.1-9v9.05H95.67V.16h3.5l2.77,8,2.73-8h3.5V10.71Z"/><path class="cls-1" d="M119.67,5.44a6.82,6.82,0,0,1-.34,2.23,4.55,4.55,0,0,1-1,1.71,4.46,4.46,0,0,1-1.63,1.11,5.67,5.67,0,0,1-2.22.4,6,6,0,0,1-2.23-.39,4.4,4.4,0,0,1-1.62-1.1,4.57,4.57,0,0,1-1-1.72,7.12,7.12,0,0,1-.33-2.24,6.72,6.72,0,0,1,.34-2.2,4.86,4.86,0,0,1,1-1.73A4.54,4.54,0,0,1,112.28.4a5.68,5.68,0,0,1,2.2-.4,6,6,0,0,1,2.24.39,4.4,4.4,0,0,1,1.62,1.1,4.71,4.71,0,0,1,1,1.72A6.82,6.82,0,0,1,119.67,5.44Zm-2.45,0a6.83,6.83,0,0,0-.13-1.34,4.1,4.1,0,0,0-.45-1.23A2.82,2.82,0,0,0,115.8,2a2.36,2.36,0,0,0-1.32-.35,2.21,2.21,0,0,0-1.29.36,2.65,2.65,0,0,0-.84.92,4.1,4.1,0,0,0-.45,1.23,6.74,6.74,0,0,0-.14,1.32,6.74,6.74,0,0,0,.14,1.32A3.83,3.83,0,0,0,112.36,8a2.74,2.74,0,0,0,.84.92,2.59,2.59,0,0,0,2.6,0,2.69,2.69,0,0,0,.84-.9,4.1,4.1,0,0,0,.45-1.23A6.86,6.86,0,0,0,117.22,5.44Z"/><path class="cls-1" d="M127.81,7.67a2.79,2.79,0,0,1-.37,1.49,3.1,3.1,0,0,1-1,1,4.06,4.06,0,0,1-1.35.56,6.53,6.53,0,0,1-1.53.18,14.86,14.86,0,0,1-1.63-.1,8.92,8.92,0,0,1-1.61-.36l.08-1.81a5.08,5.08,0,0,0,1.44.52,8.51,8.51,0,0,0,1.52.13,3.68,3.68,0,0,0,.73-.07,1.94,1.94,0,0,0,.65-.24,1.44,1.44,0,0,0,.46-.46,1.25,1.25,0,0,0,.18-.7.83.83,0,0,0-.19-.54,2.11,2.11,0,0,0-.46-.43,4,4,0,0,0-.61-.33l-.62-.27-1.07-.48a6,6,0,0,1-.87-.46,2.76,2.76,0,0,1-.69-.57,2.21,2.21,0,0,1-.46-.73,2.61,2.61,0,0,1-.17-1,2.52,2.52,0,0,1,.4-1.45,2.85,2.85,0,0,1,1-.93,4.72,4.72,0,0,1,1.38-.5A7.68,7.68,0,0,1,124.58,0a11.9,11.9,0,0,1,1.34.08,10.55,10.55,0,0,1,1.32.25l-.08,1.74a6.21,6.21,0,0,0-1.2-.35,7.61,7.61,0,0,0-1.24-.11,4.2,4.2,0,0,0-.69.06,2.44,2.44,0,0,0-.68.2,1.39,1.39,0,0,0-.51.39,1,1,0,0,0-.21.65.81.81,0,0,0,.16.48,1.61,1.61,0,0,0,.4.38,3.76,3.76,0,0,0,.52.31,5.6,5.6,0,0,0,.54.22l1.14.45a7.12,7.12,0,0,1,1,.45,3,3,0,0,1,.77.59,2.59,2.59,0,0,1,.51.81A2.93,2.93,0,0,1,127.81,7.67Z"/></g></g></svg>