<svg xmlns="http://www.w3.org/2000/svg" viewBox="0 0 113.06 32.99"><defs><style>.cls-1{fill:#3ebed4;}.cls-2{fill:#166976;}.cls-3{fill:#3db0c4;}.cls-4{fill:#8cd3f2;}.cls-5{fill:#fff;}</style></defs><title>Recurso 4</title><g id="Capa_2" data-name="Capa 2"><g id="Layer_1" data-name="Layer 1"><path class="cls-1" d="M109.23,2.63c-1-.57-7-1.52-36.73-1.52C43.6,1.11,7.25,2,3.29,2.4,3,2.42,2.47,3,2,5.11c-1.69,7.19-.86,23.35,1.85,25,1.67,1,26.09,1.75,59.39,1.75,23.92,0,44.45-.4,45.78-.88.81-.33,2.21-4.6,2.76-11.78C112.41,10.57,111.4,3.9,109.23,2.63Z"/><path class="cls-2" d="M109.79,1.67C109.09,1.25,107,0,72.5,0,43.58,0,7.16.93,3.19,1.29c-1,.09-1.75,1.26-2.3,3.57-1.55,6.62-1.27,24,2.36,26.22C6.13,32.85,49.88,33,63.22,33h0c17.6,0,44.43-.26,46.18-1,2.5-1,3.37-11.53,3.46-12.73C113.42,12,112.91,3.5,109.79,1.67Zm2,17.55c-.55,7.18-2,11.45-2.76,11.78-1.33.48-21.86.88-45.78.88-33.3,0-57.72-.72-59.39-1.75C1.12,28.46.29,12.3,2,5.11,2.47,3,3,2.42,3.29,2.4,7.25,2,43.6,1.11,72.5,1.11c29.72,0,35.77,1,36.73,1.52C111.4,3.9,112.41,10.57,111.76,19.22Z"/><path class="cls-3" d="M109,31c.63-.25,1.62-2.91,2.29-7.46-7.43,2.46-15.52,2.32-23.38,2.15L48,24.8c-8.49-.19-17.07-.39-25.32-2.43C17.32,21,12,18.85,8.08,15A17.11,17.11,0,0,1,2.83,2.8,7.06,7.06,0,0,0,2,5.11c-1.69,7.19-.86,23.35,1.85,25,1.67,1,26.09,1.75,59.39,1.75C87.14,31.88,107.67,31.48,109,31Z"/><path class="cls-4" d="M95.56,5.13a1.44,1.44,0,0,0-.79-.72,11.92,11.92,0,0,0-4.6-.88l-6.7-.4a54.35,54.35,0,0,0-8.93,0A24.94,24.94,0,0,0,69,4.33c-.69.24-1.51.78-1.3,1.48s.86.71,1.44.77c8.23.87,16.6,1.73,24.74.19C94.72,6.6,95.87,6,95.56,5.13Z"/><path class="cls-4" d="M106.83,5.07c-.12-.5-.66-.8-1.16-1a10.71,10.71,0,0,0-6.48.1A2.37,2.37,0,0,0,98,4.79.82.82,0,0,0,98,6a1.27,1.27,0,0,0,.51.2,21,21,0,0,0,6.17.49,3.67,3.67,0,0,0,1.51-.35A1.21,1.21,0,0,0,106.83,5.07Z"/><path class="cls-5" d="M35.64,21.09H33.45l-3.12-8.53h2l2.26,6.7,2.3-6.7h1.92Z"/><path class="cls-5" d="M39.22,21.09V12.56h5.56v1.31H41.07v2.22h3.54V17.4H41.07v2.39h3.82v1.3Z"/><path class="cls-5" d="M50.69,21.09l-.88-2.44c-.08-.2-.15-.38-.22-.52a1.14,1.14,0,0,0-.26-.34.89.89,0,0,0-.38-.17,2.12,2.12,0,0,0-.56-.06H47.7v3.53H45.84V12.56h3.48a4.74,4.74,0,0,1,1.07.12,2.79,2.79,0,0,1,.92.38,1.82,1.82,0,0,1,.66.69,2.11,2.11,0,0,1,.25,1.08,2,2,0,0,1-.15.79,1.75,1.75,0,0,1-.42.61,2.34,2.34,0,0,1-.63.43,3.15,3.15,0,0,1-.77.24,1.65,1.65,0,0,1,.87.42,2.72,2.72,0,0,1,.49.85l1.1,2.92ZM50.32,15a1.22,1.22,0,0,0-.14-.61.94.94,0,0,0-.38-.36,1.37,1.37,0,0,0-.55-.17,3.53,3.53,0,0,0-.66-.05h-.91V16.3h.86a3.31,3.31,0,0,0,.64-.06,2,2,0,0,0,.57-.2,1.18,1.18,0,0,0,.41-.39A1.11,1.11,0,0,0,50.32,15Z"/><path class="cls-5" d="M65,21.09l0-7.31-2.5,7.31H60.8l-2.5-7.31v7.31H56.62V12.56h2.83l2.24,6.49,2.21-6.49h2.82v8.53Z"/><path class="cls-5" d="M74.13,21.09,73.37,19H69.74L69,21.09H67.11l3.25-8.53h2.48l3.26,8.53Zm-2.56-7.34-1.44,3.9H73Zm.6-1.91H70.91l.92-1.74H73.6Z"/><path class="cls-5" d="M82.13,18.64a2.21,2.21,0,0,1-.29,1.19,2.49,2.49,0,0,1-.77.81,3.3,3.3,0,0,1-1.09.45,5.18,5.18,0,0,1-1.24.14,9.74,9.74,0,0,1-1.32-.08,6.59,6.59,0,0,1-1.3-.29l.07-1.45a4.12,4.12,0,0,0,1.16.41,7.12,7.12,0,0,0,1.23.11,3,3,0,0,0,.59-.06,1.48,1.48,0,0,0,.52-.2,1.09,1.09,0,0,0,.38-.36,1,1,0,0,0,.15-.57.72.72,0,0,0-.16-.44,1.72,1.72,0,0,0-.37-.34,2.65,2.65,0,0,0-.5-.27l-.5-.22-.87-.38c-.24-.12-.47-.24-.69-.37a3,3,0,0,1-.57-.47,2.1,2.1,0,0,1-.37-.59,2.13,2.13,0,0,1-.13-.78,2,2,0,0,1,.32-1.16A2.39,2.39,0,0,1,77.2,13a3.73,3.73,0,0,1,1.12-.4,6.28,6.28,0,0,1,1.21-.12,9.77,9.77,0,0,1,1.08.06,7.9,7.9,0,0,1,1.06.2l-.06,1.41a4.2,4.2,0,0,0-1-.28,5.81,5.81,0,0,0-1-.09,3.64,3.64,0,0,0-.56,0,2,2,0,0,0-.55.16,1.14,1.14,0,0,0-.41.31.84.84,0,0,0-.17.53.63.63,0,0,0,.13.39,1.58,1.58,0,0,0,.32.31,2.86,2.86,0,0,0,.42.24l.44.18.92.36a7.06,7.06,0,0,1,.78.37,2.45,2.45,0,0,1,.62.48,2.06,2.06,0,0,1,.41.65A2.56,2.56,0,0,1,82.13,18.64Z"/><path class="cls-5" d="M98.11,13.33c-1.45-1.18-2.85-2.45-4.4-3.5-.35-.23-.71.28-.44.56.94,1,2,1.89,3,2.8.52.45,1,.9,1.55,1.36s1.83,1,1.22,1.81c-1.76,2.21-3.53,4.4-5.22,6.65-.41.54.5,1.24.93.72,1.17-1.42,2.3-2.88,3.45-4.32.64-.82,2.47-2.36,2.47-3.48S98.8,13.91,98.11,13.33Z"/><path class="cls-5" d="M13.73,13.33c1.45-1.18,2.85-2.45,4.41-3.5.34-.23.7.28.43.56-.94,1-2,1.89-3,2.8-.52.45-1,.9-1.55,1.36s-1.83,1-1.22,1.81c1.76,2.21,3.53,4.4,5.23,6.65.4.54-.51,1.24-.94.72-1.17-1.42-2.3-2.88-3.45-4.32-.64-.82-2.47-2.36-2.47-3.48S13,13.91,13.73,13.33Z"/></g></g></svg>