<svg xmlns="http://www.w3.org/2000/svg" viewBox="0 0 1185.6 1055.28"><defs><style>.cls-1{isolation:isolate;}.cls-2{opacity:0.37;mix-blend-mode:overlay;}.cls-3{fill:#4f6077;}.cls-3,.cls-4,.cls-5,.cls-6,.cls-8,.cls-9{stroke:#fff;stroke-miterlimit:10;stroke-width:0.13px;}.cls-4{fill:#d1e2e5;}.cls-5{fill:#525a67;}.cls-6{fill:#67768a;}.cls-7{fill:#585856;opacity:0.4;}.cls-8{fill:#7388ab;}.cls-9{fill:#828ab2;}</style></defs><title>Recurso 5</title><g class="cls-1"><g id="Capa_2" data-name="Capa 2"><g id="Layer_1" data-name="Layer 1"><g class="cls-2"><polygon class="cls-3" points="363.3 0.85 366.12 0.85 369.81 0.85 369.81 3.62 367.61 6.51 366.87 12.22 374.79 12.96 384.14 10.8 384.14 21 384.14 25.98 381.98 34.61 377.68 43.21 374.79 49.05 373.38 50.39 371.23 53.34 369.81 56.97 367.61 64.83 367.61 66.99 365.45 72.62 364.72 74.05 362.5 76.94 360.41 79.22 359.68 81.25 359.68 84.93 367.61 92.8 360.41 95.69 358.99 99.98 355.44 109.32 353.96 113.76 353.22 117.32 352.55 122.34 352.55 128.08 353.22 130.23 353.96 131.71 356.85 133.13 356.85 143.2 355.44 144.62 352.55 146.15 351.01 149.72 349.65 158.33 346.1 172.69 339.58 186.35 341.72 176.37 338.9 180.56 337.43 182.03 337.43 183.45 337.43 187.08 322.98 205.08 312.96 206.5 306.51 211.65 304.3 213.68 300 221.62 294.22 228.07 287.77 233.81 287.03 238.09 287.77 243.25 282.04 242.51 276.21 241.78 266.13 241.12 262.63 243.25 262.63 241.12 266.13 223.02 271.23 194.21 282.04 138.15 285.55 107.17 290.66 72.04 292.07 62.68 293.48 50.39 295.69 49.05 300 46.84 304.3 45.34 306.51 47.5 307.13 49.05 315.11 54.68 318 54.68 324.45 46.84 328.76 41.05 331.65 36 334.47 28.74 341.72 23.85 343.21 18.8 351.01 5.75 352.55 4.35 355.44 0.85 361.14 0.07 363.3 0.85"/><polygon class="cls-4" points="554.68 699.18 569.8 705.65 589.17 692.73 615.78 705.02 620.82 710.07 624.45 717.94 626.61 720.7 629.48 720.7 633.05 722.23 635.95 722.23 638.76 720.7 642.39 722.23 645.29 725.14 648.17 727.15 652.48 726.54 656.04 724.38 661.08 721.44 661.89 721.44 662.5 721.44 668.33 720.09 670.48 718.67 671.15 716.39 671.15 710.75 672.63 707.18 673.38 707.78 674.05 709.33 675.53 712.83 676.2 715.78 676.99 720.09 677.67 723.65 678.29 729.43 681.24 740.93 684.8 748.8 688.42 756.72 693.46 766.18 710.81 792.68 712.95 794.84 717.26 793.39 717.93 798.49 720.15 802.14 724.39 809.99 729.49 817.8 736.61 826.53 741.66 827.95 744.54 828.61 748.84 830.85 752.41 834.4 752.41 837.29 748.17 841.61 745.96 841.61 742.45 839.45 739.5 835.87 737.35 832.98 732.31 830.85 730.16 830.11 728.01 832.27 721.5 843 720.15 868.94 719.41 881.17 722.97 881.17 734.52 889.04 736.61 894.19 735.94 895.61 732.31 898.38 728.01 899.93 723.7 902.08 722.24 903.48 718.67 909.13 718.67 911.42 720.15 914.18 721.5 916.39 724.39 921.44 725.12 927.21 724.39 936.54 720.15 940.86 716.52 941.64 713.63 943.8 707.85 948.73 707.18 951.67 708.52 953.75 711.48 955.17 713.63 955.17 714.36 956.72 717.93 970.96 717.26 974.03 716.52 977.53 716.52 978.34 716.52 971.82 713.63 963.88 711.48 959.59 709.27 957.43 705.7 953.75 702.14 952.38 699.24 949.46 697.77 947.38 698.56 944.41 699.92 943.04 702.14 938.75 696.36 925.05 692.05 922.15 684.8 917.87 684.8 914.97 683.45 912.81 681.24 912.15 678.29 912.81 671.9 914.97 676.2 923.63 677.67 925.73 679.82 926.47 681.97 927.21 684.12 928.63 686.28 930.78 687.75 937.36 687.75 941.64 686.95 945.15 685.6 945.96 684.12 945.96 679.82 943.8 677.67 941.64 673.38 940.12 670.48 939.49 668.33 939.49 661.08 937.36 650.33 925.73 650.33 923.63 651.06 921.44 653.21 917.13 656.04 916.39 664.04 902.08 664.04 899.17 663.29 890.46 661.89 884.01 656.04 876.25 654.63 873.99 651.06 870.44 636.61 858.08 632.31 856.05 627.34 853.89 623.04 852.34 620.82 852.34 620.09 849.45 615.11 843.74 602.82 840.19 593.53 838.08 589.91 838.82 583.45 832.98 580.57 827.95 579.83 825.19 579.83 822.12 581.24 819.22 582.72 818.61 583.45 815.72 578.42 801.28 575.53 797.09 570.49 797.09 566.92 797.09 564.7 793.39 561.82 791.26 552.48 781.92 550.33 779.05 536.68 774.71 535.94 776.87 535.94 784.05 537.36 785.47 538.83 786.21 542.41 789.91 540.99 791.94 543.87 794.2 553.96 799.86 559.68 804.17 561.82 812.14 556.78 819.22 540.24 832.27 534.53 819.22 530.9 813.62 525.13 809.2 522.24 808.46 518 807.12 510.13 805.7 508.6 805.7 507.18 805.7 503.56 804.17 499.99 802.8 496.43 794.2 493.48 789.1 492.06 788.36 489.85 784.73 487.75 775.45 486.35 770.42 487.02 759.68 492.06 755.24 504.97 738.77 507.18 735.88 504.29 719.36 502.14 717.94 499.99 717.94 493.48 715.04 486.35 710.75 488.5 708.52 492.06 705.65 494.15 705.65 501.39 707.18 503.56 706.44 504.97 703.62 507.18 694.76 505.77 693.39 512.9 680.5 517.26 680.5 520.09 684.82 528.08 688.42 533.06 689.11 540.99 692.73 543.87 694.15 548.17 696.31 548.92 696.31 551.06 697.84 554.68 699.18"/><polygon class="cls-5" points="236.01 379.81 236.69 381.36 238.16 382.02 239.51 382.78 246.03 384.79 248.92 387.07 253.23 389.96 260.41 388.41 261.09 389.2 264.04 396.28 265.45 399.23 265.45 399.99 265.45 402.14 268.35 400.6 270.43 400.6 271.97 402.14 273.39 403.54 274.12 407.04 274.79 409.33 274.79 410.72 276.94 410.72 279.84 407.04 281.31 407.04 282.73 409.33 284.19 411.48 284.19 415.77 287.77 418.67 290.66 418.67 300 421.61 300.73 422.98 300 428.01 300.73 432.32 302.21 433.84 305.03 432.32 307.92 430.82 310.01 430.82 311.49 432.32 312.23 431.58 314.31 430.21 319.42 428.67 322.31 425.24 325.94 420.82 328.08 422.22 331.65 420.82 336.69 422.98 338.1 426.53 340.25 431.58 344.55 429.43 345.3 429.43 348.19 429.43 348.85 429.43 356.85 429.43 361.14 432.32 362.5 435.26 363.97 436.61 364.72 436.61 361.89 444.6 356.11 459.65 354.7 464.7 356.85 465.52 360.41 466.13 360.41 468.28 360.41 469.02 356.85 471.91 351.01 475.46 349.65 472.7 346.77 477.72 346.77 479.78 348.19 481.3 349.65 482.72 352.55 485.62 351.01 489.12 348.19 491.4 338.9 498.51 335.28 497.85 330.18 497.85 326.61 497.85 325.19 497.85 323.72 497.85 318 498.51 315.85 498.51 300.73 495.64 295.69 491.4 289.91 487.65 284.88 487.01 276.94 489.12 282.04 489.91 283.46 489.12 287.03 488.51 292.81 494.95 290.66 494.95 284.19 493.41 279.84 492.67 276.21 492.06 272.64 491.4 267.6 489.91 266.13 489.12 264.04 487.01 262.63 485.62 254.63 481.3 244.62 476.2 243.14 474.73 241.73 474.12 239.51 472.7 236.69 471.18 230.23 468.28 223.72 467.62 216.53 466.86 205.04 465.52 202.14 463.97 199.32 463.97 193.55 463.97 188.5 463.31 187.82 459.65 187.03 456.76 184.88 454.68 181.31 452.57 178.42 451.05 174.86 448.16 167.67 443.87 166.87 439.55 167.67 436.61 169.76 432.32 175.54 425.92 187.82 415.77 190.65 414.35 193.55 413.74 199.99 415.77 199.32 413.74 201.41 408.59 203.62 406.43 205.84 404.4 208.67 401.33 210.82 400.6 212.29 400.6 214.44 400.6 220.16 397.83 218.74 391.36 216.53 390.65 215.11 389.96 215.86 384.13 217.27 381.36 219.42 380.62 223.72 380.62 228.82 381.36 236.01 379.81"/><polygon class="cls-6" points="243.14 62.68 268.35 62.68 292.07 62.68 290.66 72.04 285.55 107.17 282.04 138.15 271.23 194.21 266.13 223.02 262.63 241.12 262.63 243.25 266.13 241.12 276.21 241.78 282.04 242.51 287.77 243.25 289.91 246.06 293.48 245.3 295.02 245.3 297.11 246.06 300 248.17 305.03 254.01 307.92 259.74 309.34 261.19 310.81 260.33 310.81 257.59 320.83 246.7 317.27 242.51 315.11 241.12 317.27 238.09 328.08 248.17 339.58 257.59 340.99 258.32 342.4 259.06 340.25 259.74 333.8 264.16 332.32 266.93 318 279.08 311.49 284.23 301.41 293.47 293.48 298.57 286.35 303.6 273.39 313.7 259 319.41 257.52 320.96 256.79 323.7 255.43 326.59 257.52 328.01 254.63 333.85 253.96 335.19 252.48 336.74 250.33 338.14 250.33 341.03 254.63 351.06 256.11 353.16 255.43 356.24 249.66 365.42 246.83 365.42 236.01 375.52 236.01 379.81 228.82 381.36 223.72 380.62 219.42 380.62 217.27 381.36 215.86 384.13 215.11 389.96 216.53 390.65 218.74 391.36 220.16 397.83 214.44 400.6 212.29 400.6 210.82 400.6 208.67 401.33 205.84 404.4 203.62 406.43 201.41 408.59 199.32 413.74 199.99 415.77 193.55 413.74 190.65 414.35 187.82 415.77 175.54 425.92 169.76 432.32 167.67 436.61 166.87 439.55 167.67 443.87 166.87 443.87 163.37 441.71 158.27 439.55 156.85 438.82 148.25 433.84 143.15 431.58 138.9 430.21 136.69 429.43 128.82 426.53 127.35 426.53 125.88 426.53 122.37 426.53 114.38 426.53 104.36 427.27 100.06 427.27 94.29 428.01 88.51 428.01 86.35 428.01 80.57 426.53 71.3 424.5 64.79 421.61 56.17 417.32 53.23 415.77 50.4 413.74 48.92 413.01 46.09 411.48 44.62 410.06 43.27 408.59 41.74 407.04 41.05 405.62 35.28 402.14 31.71 399.99 24.46 392.73 20.89 389.96 18.75 387.07 12.3 380.62 5.77 374.76 2.21 371.21 0.06 369 0.06 368.31 0.73 368.31 2.21 367.58 5.04 364.71 8.67 356.24 9.4 353.95 9.4 351.79 8.67 348.24 7.92 343.93 7.92 341.03 12.3 332.43 17.27 323.7 20.16 319.41 10.82 302.2 20.89 285.65 49.66 241.78 52.55 236.67 59.74 225.91 61.16 225.91 74.86 225.91 119.48 225.91 135.28 225.91 149.66 225.91 163.37 225.91 164.04 225.91 164.78 224.44 166.19 220.89 166.87 216.57 164.78 215.18 165.46 208.58 167.67 204.29 170.56 201.4 172.71 197.89 172.71 195.69 171.23 194.21 165.46 189.9 164.04 189.29 161.16 188.48 156.85 188.48 156.12 187.08 153.23 184.19 153.97 180.56 153.97 177.01 153.97 172.69 152.55 169.8 150.4 164.7 147.45 161.93 143.88 157.52 138.9 156.91 134.48 155.49 133.13 149.72 130.18 149.04 124.52 146.76 115.85 136 110.08 126.66 105.78 121.63 97.85 117.32 97.85 115.16 134.48 115.79 138.9 84.93 142.47 63.31 142.47 62.68 147.45 62.68 159.06 62.68 174.12 62.68 202.89 62.68 222.25 62.68 243.14 62.68"/><polygon class="cls-7" points="539.51 231.65 545.29 233.17 553.96 237.46 556.11 238.83 558.26 240.25 561.08 241.78 566.19 243.25 574.11 243.25 587.02 242.51 592.73 241.78 597.77 239.57 599.99 238.09 601.34 236.67 603.55 235.28 605.7 234.52 607.85 233.81 614.37 235.28 633.05 244.54 636.61 248.96 636.61 251.85 638.1 254.01 645.29 253.27 651.74 248.96 645.29 247.56 648.9 246.7 666.18 248.96 676.99 260.33 682.72 267.58 695.62 283.45 691.32 281.98 689.1 278.42 683.45 276.19 671.15 274.84 667.59 275.53 668.33 277.79 674.78 291.31 676.2 293.47 688.42 304.36 695.62 301.47 690.65 296.37 686.28 294.26 684.12 294.26 681.97 292.05 680.5 289.16 683.45 287.76 686.28 288.55 689.1 289.97 697.09 296.37 700.66 300.05 700.66 307.91 702.14 307.91 712.21 301.47 715.78 302.2 720.15 301.47 720.82 303.6 720.15 306.52 717.93 307.91 717.26 305.75 715.11 304.97 711.48 308.65 712.21 310.81 715.78 311.54 722.24 307.23 722.24 304.97 722.24 300.05 720.15 298.57 717.93 297.89 713.63 294.26 722.24 298.57 728.01 300.65 730.83 302.2 733.85 305.75 735.21 309.94 735.21 313.7 736.61 317.25 738.09 320.14 739.5 321.67 742.45 323.7 745.34 325.25 749.64 327.35 747.43 327.35 741.66 328.01 734.52 325.98 731.64 325.25 729.49 324.43 720.82 325.98 715.78 330.9 713.63 333.85 689.91 346.74 687.75 347.48 681.24 349.63 678.29 349.63 673.38 349.63 659.66 353.16 654.63 356.24 635.95 361.87 619.41 356.82 612.15 343.93 609.33 342.45 602.82 344.54 595.68 350.4 594.88 351.79 591.33 357.58 591.33 363.98 590.58 365.42 587.76 368.31 586.34 369 579.83 374.05 576.94 379.81 576.19 384.13 577.68 386.33 577.68 388.41 575.53 390.65 572.64 392.12 569.8 392.12 567.6 392.12 565.39 392.73 563.29 394.25 558.93 397.83 555.36 403.54 554.68 406.43 552.48 408.59 543.14 415.77 542.41 415.77 527.34 423.69 525.13 430.82 526.6 432.32 525.87 435.26 525.13 435.87 520.83 435.26 518 432.98 507.92 423.69 505.77 421.61 503.56 419.4 504.97 415.09 499.99 414.35 495.69 417.32 494.95 420.09 476.26 441.71 470.48 443.13 464.77 441.71 456.78 440.29 445.29 441.02 440.99 443.13 440.25 446.76 439.58 460.42 440.99 469.81 441.67 472.7 442.46 480.51 441.67 485.62 438.1 488.51 437.36 489.12 435.27 487.01 431.65 485.62 428.02 487.01 424.45 489.91 423.04 494.95 423.04 497.85 420.82 505.69 418.01 510.03 412.23 514.45 410.07 515.03 406.45 513.58 389.17 514.45 388.44 510.74 387.08 505.11 385.55 502.82 379.83 494.95 374.79 487.65 376.27 485.62 381.31 480.51 386.29 478.41 386.29 476.89 385.55 474.73 381.31 474.73 379.1 476.89 379.1 479.78 374.12 481.3 371.97 479.17 368.34 477.72 367.61 475.46 367.61 471.91 366.12 470.57 364.72 474.12 363.97 477.72 361.89 479.78 358.99 480.51 356.85 479.78 355.44 479.17 351.01 475.46 356.85 471.91 360.41 469.02 360.41 468.28 360.41 466.13 356.85 465.52 354.7 464.7 356.11 459.65 361.89 444.6 364.72 436.61 363.97 436.61 362.5 435.26 361.14 432.32 356.85 429.43 348.85 429.43 348.19 429.43 345.3 429.43 344.55 429.43 340.25 431.58 338.1 426.53 336.69 422.98 331.65 420.82 328.08 422.22 325.94 420.82 322.31 425.24 319.42 428.67 314.31 430.21 312.23 431.58 311.49 432.32 310.01 430.82 307.92 430.82 305.03 432.32 302.21 433.84 300.73 432.32 300 428.01 300.73 422.98 300 421.61 290.66 418.67 287.77 418.67 284.19 415.77 284.19 411.48 282.73 409.33 281.31 407.04 279.84 407.04 276.94 410.72 274.79 410.72 274.79 409.33 274.12 407.04 273.39 403.54 271.97 402.14 270.43 400.6 268.35 400.6 265.45 402.14 265.45 399.99 265.45 399.23 264.04 396.28 261.09 389.2 260.41 388.41 253.23 389.96 248.92 387.07 246.03 384.79 239.51 382.78 238.16 382.02 236.69 381.36 236.01 379.81 236.01 375.52 246.83 365.42 249.66 365.42 255.43 356.24 256.11 353.16 254.63 351.06 250.33 341.03 250.33 338.14 252.48 336.74 253.96 335.19 254.63 333.85 257.52 328.01 255.43 326.59 256.79 323.7 257.52 320.96 259 319.41 273.39 313.7 286.35 303.6 293.48 298.57 301.41 293.47 311.49 284.23 318 279.08 332.32 266.93 333.8 264.16 340.25 259.74 342.4 259.06 343.87 260.33 345.3 261.87 348.19 262.61 350.34 261.19 358.26 253.27 368.34 245.3 372.63 243.25 377.68 242.51 382.72 242.51 384.14 240.25 386.29 240.25 392.06 243.81 394.27 246.06 399.26 251.11 403.55 253.27 405.77 253.27 411.48 249.59 417.2 248.17 419.41 248.96 428.76 251.85 444.61 255.4 446.76 255.4 450.33 256.17 456.78 254.69 458.99 253.27 464.77 252.49 484.19 251.85 488.5 253.27 489.85 254.69 490.65 254.69 494.15 254.69 502.14 250.4 504.29 248.96 505.77 246.06 510.13 243.81 515.05 242.51 516.52 242.51 521.56 242.51 523.72 242.51 525.87 242.51 529.43 241.12 531.65 238.83 533.06 237.46 533.74 233.81 531.65 233.17 528.69 233.17 525.87 230.91 533.06 230.91 539.51 231.65"/><polygon class="cls-8" points="734.52 325.98 741.66 328.01 747.43 327.35 749.64 327.35 743.81 330.14 733.05 334.58 730.83 335.93 729.49 337.35 726.54 341.03 724.39 344.54 727.27 350.4 730.16 351.79 731.64 350.4 734.52 359.74 736.61 368.31 738.09 378.47 738.77 383.39 738.77 387.07 738.77 389.96 738.09 392.12 735.94 396.28 731.64 403.54 723.7 415.09 720.82 417.93 718.67 419.4 715.78 422.98 713.63 427.27 710.81 436.61 710.07 438.82 707.85 445.21 705.7 453.94 700.66 471.18 699.92 476.2 699.24 479.78 698.56 487.65 697.77 492.06 697.77 495.64 697.77 497.85 698.56 509.4 699.92 522.29 699.24 526.6 698.56 528.71 697.77 530.92 694.94 545.89 694.27 550.33 694.94 554.62 695.62 557.59 696.36 560.36 697.77 563.25 697.77 567.67 696.36 570.48 689.91 570.48 687.75 568.28 685.6 561.88 685.6 558.94 686.95 554.62 691.32 553.91 692.8 552.49 696.36 534.52 695.62 533 694.94 531.63 691.32 530.11 687.75 532.39 686.95 536.55 689.1 538.1 690.65 543.13 690.65 548.17 681.24 555.31 677.67 561.88 678.29 576.14 681.24 580.56 680.5 584.87 678.29 602.08 674.78 600.66 673.38 602.94 672.63 605.66 670.48 612.97 667.59 616.45 664.71 618.68 666.86 622.15 668.33 625.07 671.15 625.07 671.15 622.15 672.63 620.02 675.53 621.57 676.2 628.63 676.99 630.91 677.67 638.78 676.99 643.8 674.78 644.57 668.33 648.85 660.41 661.14 658.99 663.93 657.51 666.06 656.78 668.96 656.78 671.16 657.51 679.82 657.51 684.05 660.41 692.73 661.89 697.05 664.04 700.6 664.71 702.76 666.86 705.65 671.9 707.18 672.63 707.18 671.15 710.75 671.15 716.39 670.48 718.67 668.33 720.09 662.5 721.44 661.89 721.44 661.08 721.44 656.04 724.38 652.48 726.54 648.17 727.15 645.29 725.14 642.39 722.23 638.76 720.7 635.95 722.23 633.05 722.23 629.48 720.7 626.61 720.7 624.45 717.94 620.82 710.07 615.78 705.02 589.17 692.73 569.8 705.65 554.68 699.18 551.06 697.84 548.92 696.31 548.17 696.31 543.87 694.15 540.99 692.73 533.06 689.11 528.08 688.42 520.09 684.82 517.26 680.5 512.9 680.5 505.77 693.39 502.14 692 498.51 689.84 497.16 686.29 495.69 682.66 488.5 672.63 479.16 662.56 471.9 656.72 469.01 651.75 462.62 645.96 453.95 637.36 452.48 635.94 444.61 629.36 444.61 628.63 443.14 625.86 440.99 621.57 435.27 610.08 433.06 607.87 432.33 607.11 432.33 606.5 430.17 602.08 428.76 598.53 427.35 593.48 426.6 589.77 425.19 587.69 414.38 579.82 410.8 576.88 407.18 573.99 402.08 569.7 397.78 565.38 399.26 563.91 397.78 563.25 393.48 560.36 381.98 548.17 375.53 538.1 363.97 528.08 360.41 525.82 356.85 520.89 359.68 515.03 366.87 508.58 369.08 508.58 371.23 510.03 372.63 511.48 375.53 515.79 375.53 518.74 379.1 521.5 381.31 522.29 382.72 522.29 389.17 520.89 387.08 520.08 388.44 515.79 389.17 514.45 406.45 513.58 410.07 515.03 412.23 514.45 418.01 510.03 420.82 505.69 423.04 497.85 423.04 494.95 424.45 489.91 428.02 487.01 431.65 485.62 435.27 487.01 437.36 489.12 438.1 488.51 441.67 485.62 442.46 480.51 441.67 472.7 440.99 469.81 439.58 460.42 440.25 446.76 440.99 443.13 445.29 441.02 456.78 440.29 464.77 441.71 470.48 443.13 476.26 441.71 494.95 420.09 495.69 417.32 499.99 414.35 504.97 415.09 503.56 419.4 505.77 421.61 507.92 423.69 518 432.98 520.83 435.26 525.13 435.87 525.87 435.26 526.6 432.32 525.13 430.82 527.34 423.69 542.41 415.77 543.14 415.77 552.48 408.59 554.68 406.43 555.36 403.54 558.93 397.83 563.29 394.25 565.39 392.73 567.6 392.12 569.8 392.12 572.64 392.12 575.53 390.65 577.68 388.41 577.68 386.33 576.19 384.13 576.94 379.81 579.83 374.05 586.34 369 587.76 368.31 590.58 365.42 591.33 363.98 591.33 357.58 594.88 351.79 595.68 350.4 602.82 344.54 609.33 342.45 612.15 343.93 619.41 356.82 635.95 361.87 654.63 356.24 659.66 353.16 673.38 349.63 678.29 349.63 681.24 349.63 687.75 347.48 689.91 346.74 713.63 333.85 715.78 330.9 720.82 325.98 729.49 324.43 731.64 325.25 734.52 325.98"/><polygon class="cls-9" points="1007.11 834.4 1025.12 836.56 1032.37 836.56 1038.82 836.56 1041.65 835.87 1045.95 835.87 1048.83 836.56 1048.1 837.29 1045.22 838.82 1042.32 838.82 1039.49 840.87 1039.49 843.74 1040.17 847.42 1043.8 847.42 1069 846.71 1081.23 847.42 1085.53 849.45 1089.16 851.61 1092.72 853.89 1096.29 856.05 1106.42 860.34 1113.61 863.23 1122.96 866 1130.1 873.99 1134.45 878.28 1137.29 879.75 1140.91 882.6 1145.27 889.78 1145.27 892.67 1148.1 899.17 1153.82 902.69 1161.01 909.13 1161.01 914.97 1163.22 916.39 1164.69 917.87 1169 919.29 1173.91 918.47 1174.71 917.87 1173.91 920 1168.26 927.94 1167.52 928.63 1165.37 932.18 1165.37 936.54 1169 936.54 1170.4 938.75 1172.56 943.8 1173.29 946.57 1173.29 949.46 1173.29 953.75 1173.91 955.98 1178.34 960.32 1179.75 962.48 1182.64 967.51 1184.12 972.51 1185.54 981.11 1183.38 986.95 1176.86 989.71 1175.51 991.24 1170.4 1001.34 1173.29 1006.24 1173.29 1008.52 1151.66 1024.99 1150.31 1023.57 1149.51 1021.44 1148.1 1017.91 1145.27 1010.65 1138.76 1007.05 1138.02 1009.3 1137.29 1011.97 1137.29 1014.86 1138.02 1017.12 1139.5 1020.67 1140.17 1024.31 1138.76 1027.15 1137.29 1028.62 1135.2 1030.02 1132.98 1029.28 1125.11 1053.06 1122.96 1052.35 1115.77 1042.93 1103.48 1026.54 1103.48 1023.57 1103.48 1021.44 1098.56 1013.49 1094.87 1007.66 1095.61 1006.24 1089.83 992.71 1088.36 991.24 1087 989.71 1085.53 984 1084.06 976.11 1084.8 973.24 1087 971.82 1087 974.66 1089.16 975.4 1093.46 975.4 1095.61 974.03 1098.56 970.96 1100.65 966.77 1100.65 963.88 1097.83 960.32 1095.61 957.43 1099.17 955.17 1105.69 950.25 1109.25 943.04 1109.93 943.8 1117.12 951.67 1118.6 955.98 1120.81 958.85 1123.63 958.07 1130.1 959.59 1133.72 962.48 1135.87 966.06 1137.29 968.93 1138.02 966.06 1131.57 958.85 1129.42 957.43 1127.94 957.43 1121.54 955.98 1119.34 955.17 1117.12 948.73 1112.83 937.94 1111.47 939.49 1102.12 945.15 1100.65 943.8 1091.99 943.8 1089.16 949.46 1088.36 948.09 1087 948.73 1081.23 938.75 1081.91 934.46 1080.49 922.79 1078.34 921.44 1076.19 920 1072.56 918.47 1069 914.97 1064.64 910.66 1062.55 907.11 1049.58 895.61 1040.17 890.46 1038.02 890.46 1036.61 886.27 1037.34 882.6 1040.91 876.88 1044.47 873.99 1042.32 874.73 1039.49 875.39 1033.66 878.91 1032.98 882.6 1032.98 884.01 1031.57 886.27 1023.7 886.88 1020.75 885.46 1019.4 885.46 1012.15 885.46 1010 886.27 1006.37 886.27 1002.81 887.62 999.24 891.33 998.51 894.88 994.13 898.38 989.16 899.17 984.12 899.93 980.44 902.69 978.34 907.11 979.08 912.15 979.82 914.18 976.2 924.31 961.07 938.75 955.35 942.38 954.56 943.04 950.99 945.15 948.1 946.57 945.28 948.73 937.29 953.14 928.68 953.75 924.38 953.75 920.81 955.98 917.13 960.32 916.52 962.48 915.77 966.77 915.77 972.51 915.77 973.24 918.66 978.95 922.29 980.42 922.97 981.11 923.64 981.11 925.86 981.11 927.27 985.4 928.01 988.29 940.24 1003.5 948.1 1014.23 953.2 1025.73 951.73 1030.83 950.32 1032.17 943.8 1033.72 938.77 1035.88 934.46 1035.12 930.89 1034.46 928.68 1033.72 926.59 1035.12 921.49 1039.48 920.08 1045.22 915.03 1051.66 902.07 1052.35 898.5 1052.35 897.77 1053.06 894.88 1053.69 892.05 1054.43 884.8 1055.22 880.49 1054.43 878.4 1053.69 874.78 1050.12 876.19 1044.35 878.4 1042.93 876.93 1032.93 874.78 1022.1 871.89 1017.12 869.74 1014.86 867.6 1010.65 866.85 1004.21 866.85 996.9 866.85 992.71 861.08 995.55 858.93 994.87 856.84 994.87 856.84 997.76 857.51 999.18 855.36 1009.91 854.61 1014.23 852.52 1017.12 848.17 1015.65 845.21 1013.49 840.91 1011.97 835.19 1010.65 830.22 1009.3 824.38 1003.5 822.97 999.84 822.29 992.71 822.29 986.13 821.55 983.27 820.75 982.5 820.14 983.27 818.66 982.5 816.45 978.95 814.3 974.66 817.19 974.66 815.04 969.74 812.15 965.33 794.94 963.17 783.38 961.01 779.09 963.88 775.46 962.48 773.31 960.32 773.31 955.17 771.22 953.14 768.26 951.67 763.22 952.38 760.4 953.75 758.26 953.75 753.15 955.17 750.33 955.17 748.17 954.54 745.96 953.75 740.99 952.38 736.61 950.98 732.31 950.98 727.27 952.38 725.12 953.14 722.24 955.17 719.41 959.59 718.67 963.17 719.41 971.82 720.15 974.66 718.67 978.95 716.52 978.34 716.52 977.53 717.26 974.03 717.93 970.96 714.36 956.72 713.63 955.17 711.48 955.17 708.52 953.75 707.18 951.67 707.85 948.73 713.63 943.8 716.52 941.64 720.15 940.86 724.39 936.54 725.12 927.21 724.39 921.44 721.5 916.39 720.15 914.18 718.67 911.42 718.67 909.13 722.24 903.48 723.7 902.08 728.01 899.93 732.31 898.38 735.94 895.61 736.61 894.19 734.52 889.04 722.97 881.17 719.41 881.17 720.15 868.94 721.5 843 728.01 832.27 730.16 830.11 732.31 830.85 737.35 832.98 739.5 835.87 742.45 839.45 745.96 841.61 748.17 841.61 752.41 837.29 752.41 834.4 753.15 834.4 754.62 835.87 767.6 849.45 766.92 857.39 765.45 860.34 769.75 869.68 773.31 877.67 775.46 886.88 786.34 892.67 789.84 893.36 796.36 892.67 810 892.67 812.95 886.88 807.11 881.17 803.54 876.88 804.28 871.83 805.64 871.15 807.11 871.83 816.45 882.6 819.41 886.88 822.29 891.33 824.38 894.88 826.53 898.38 830.83 903.48 835.19 906.42 853.88 907.11 858.19 907.11 859.66 907.79 863.96 907.11 869 905.56 879.76 902.69 881.23 900.66 887.01 898.38 887.75 899.17 888.37 899.17 890.58 898.38 893.46 896.35 895.61 893.36 897.77 889.78 907.85 883.33 910.74 881.83 916.52 878.91 927.27 874.73 935.2 873.25 940.24 872.52 948.1 868.94 951.73 868.25 953.88 866.78 957.51 863.23 961.07 858.92 962.54 856.76 964.69 854.5 966.17 853.89 978.34 849.45 983.38 846.71 988.42 841.61 989.84 835.87 994.13 831.58 996.28 830.85 1002.07 829.48 1007.11 834.4"/></g></g></g></g></svg>