<svg xmlns="http://www.w3.org/2000/svg" viewBox="0 0 113.06 32.99"><defs><style>.cls-1{fill:#3ebed4;}.cls-2{fill:#166976;}.cls-3{fill:#3db0c4;}.cls-4{fill:#8cd3f2;}.cls-5{fill:#fff;}</style></defs><title>Recurso 3</title><g id="Capa_2" data-name="Capa 2"><g id="Layer_1" data-name="Layer 1"><path class="cls-1" d="M109.23,2.63c-1-.57-7-1.52-36.73-1.52C43.6,1.11,7.25,2,3.29,2.4,3,2.42,2.47,3,2,5.11c-1.69,7.19-.86,23.35,1.85,25,1.67,1,26.09,1.75,59.39,1.75,23.92,0,44.45-.4,45.78-.88.81-.33,2.21-4.6,2.76-11.78C112.41,10.57,111.4,3.9,109.23,2.63Z"/><path class="cls-2" d="M109.79,1.67C109.09,1.25,107,0,72.5,0,43.58,0,7.16.93,3.19,1.29c-1,.09-1.75,1.26-2.3,3.57-1.55,6.62-1.27,24,2.36,26.22C6.13,32.85,49.88,33,63.22,33h0c17.6,0,44.43-.26,46.18-1,2.5-1,3.37-11.53,3.46-12.73C113.42,12,112.91,3.5,109.79,1.67Zm2,17.55c-.55,7.18-2,11.45-2.76,11.78-1.33.48-21.86.88-45.78.88-33.3,0-57.72-.72-59.39-1.75C1.12,28.46.29,12.3,2,5.11,2.47,3,3,2.42,3.29,2.4,7.25,2,43.6,1.11,72.5,1.11c29.72,0,35.77,1,36.73,1.52C111.4,3.9,112.41,10.57,111.76,19.22Z"/><path class="cls-3" d="M109,31c.63-.25,1.62-2.91,2.29-7.46-7.43,2.46-15.52,2.32-23.38,2.15L48,24.8c-8.49-.19-17.07-.39-25.32-2.43C17.32,21,12,18.85,8.08,15A17.11,17.11,0,0,1,2.83,2.8,7.06,7.06,0,0,0,2,5.11c-1.69,7.19-.86,23.35,1.85,25,1.67,1,26.09,1.75,59.39,1.75C87.14,31.88,107.67,31.48,109,31Z"/><path class="cls-4" d="M95.56,5.13a1.44,1.44,0,0,0-.79-.72,11.92,11.92,0,0,0-4.6-.88l-6.7-.4a54.35,54.35,0,0,0-8.93,0A24.94,24.94,0,0,0,69,4.33c-.69.24-1.51.78-1.3,1.48s.86.71,1.44.77c8.23.87,16.6,1.73,24.74.19C94.72,6.6,95.87,6,95.56,5.13Z"/><path class="cls-4" d="M106.83,5.07c-.12-.5-.66-.8-1.16-1a10.71,10.71,0,0,0-6.48.1A2.37,2.37,0,0,0,98,4.79.82.82,0,0,0,98,6a1.27,1.27,0,0,0,.51.2,21,21,0,0,0,6.17.49,3.67,3.67,0,0,0,1.51-.35A1.21,1.21,0,0,0,106.83,5.07Z"/><path class="cls-5" d="M33.72,20.31A3.8,3.8,0,0,1,32.79,23a3.56,3.56,0,0,1-2.68,1,6.85,6.85,0,0,1-2-.3l.1-2a1.67,1.67,0,0,0,.51.16,2.89,2.89,0,0,0,.52,0,1.57,1.57,0,0,0,1.37-.58A2.38,2.38,0,0,0,31,19.9V11.45h2.74Z"/><path class="cls-5" d="M45.87,19.16a5.23,5.23,0,0,1-.39,2.09,4.18,4.18,0,0,1-1.12,1.52,4.78,4.78,0,0,1-1.67.93A6.68,6.68,0,0,1,40.6,24a6.94,6.94,0,0,1-2.09-.3,4.55,4.55,0,0,1-1.64-.88,4,4,0,0,1-1.07-1.48,5.18,5.18,0,0,1-.39-2.08V11.45h2.74v7.73a4.44,4.44,0,0,0,.14,1.11,2.68,2.68,0,0,0,.43.9,2.19,2.19,0,0,0,.77.6,2.6,2.6,0,0,0,1.12.22,2.78,2.78,0,0,0,1.13-.21,2,2,0,0,0,.79-.6,2.41,2.41,0,0,0,.45-.89,4,4,0,0,0,.15-1.12V11.45h2.74Z"/><path class="cls-5" d="M58.23,23.27a11.36,11.36,0,0,1-2.17.56,13.66,13.66,0,0,1-2.22.18,8.13,8.13,0,0,1-2.72-.43A6,6,0,0,1,49,22.35a5.35,5.35,0,0,1-1.4-2,6.82,6.82,0,0,1-.5-2.71A6.29,6.29,0,0,1,47.61,15a5.93,5.93,0,0,1,1.44-2,6.46,6.46,0,0,1,2.16-1.27,7.79,7.79,0,0,1,2.67-.44,13,13,0,0,1,1.94.14,11.9,11.9,0,0,1,1.89.41L57.6,13.9a5.8,5.8,0,0,0-1.55-.53,8.09,8.09,0,0,0-1.62-.16,5.2,5.2,0,0,0-1.85.31,3.75,3.75,0,0,0-1.42.88,3.84,3.84,0,0,0-.9,1.4A5.11,5.11,0,0,0,50,17.64a6,6,0,0,0,.24,1.73,4.09,4.09,0,0,0,.72,1.41,3.36,3.36,0,0,0,1.22.94,4,4,0,0,0,1.73.35,7.77,7.77,0,0,0,1-.07,4.31,4.31,0,0,0,1-.25V19.1H54.15V17.31h4.08Z"/><path class="cls-5" d="M68.64,23.81l-1.09-3.1H62.28l-1.11,3.1h-2.7l4.7-12.36h3.6l4.72,12.36ZM64.93,13.17l-2.09,5.65H67Z"/><path class="cls-5" d="M79.08,23.81l-1.27-3.54a7.32,7.32,0,0,0-.32-.75,1.35,1.35,0,0,0-.37-.49,1.24,1.24,0,0,0-.54-.26,3.82,3.82,0,0,0-.83-.08h-1v5.12H72.06V11.45h5a7.22,7.22,0,0,1,1.55.17,4.1,4.1,0,0,1,1.34.54,2.9,2.9,0,0,1,1,1,3.1,3.1,0,0,1,.36,1.56,3.06,3.06,0,0,1-.22,1.15,2.79,2.79,0,0,1-.62.89,3.32,3.32,0,0,1-.9.61,4.63,4.63,0,0,1-1.11.35,2.34,2.34,0,0,1,1.25.61,4,4,0,0,1,.71,1.23L82,23.81ZM78.55,15a1.66,1.66,0,0,0-.21-.88,1.31,1.31,0,0,0-.54-.53,2.42,2.42,0,0,0-.8-.25,7.23,7.23,0,0,0-1-.06H74.73v3.57H76a5.77,5.77,0,0,0,.94-.08,2.67,2.67,0,0,0,.82-.3,1.7,1.7,0,0,0,.6-.56A1.78,1.78,0,0,0,78.55,15Z"/><path class="cls-5" d="M98.11,13.33c-1.45-1.18-2.85-2.45-4.4-3.5-.35-.23-.71.28-.44.56.94,1,2,1.89,3,2.8.52.45,1,.9,1.55,1.36s1.83,1,1.22,1.81c-1.76,2.21-3.53,4.4-5.22,6.65-.41.54.5,1.24.93.72,1.17-1.42,2.3-2.88,3.45-4.32.64-.82,2.47-2.36,2.47-3.48S98.8,13.91,98.11,13.33Z"/><path class="cls-5" d="M13.73,13.33c1.45-1.18,2.85-2.45,4.41-3.5.34-.23.7.28.43.56-.94,1-2,1.89-3,2.8-.52.45-1,.9-1.55,1.36s-1.83,1-1.22,1.81c1.76,2.21,3.53,4.4,5.23,6.65.4.54-.51,1.24-.94.72-1.17-1.42-2.3-2.88-3.45-4.32-.64-.82-2.47-2.36-2.47-3.48S13,13.91,13.73,13.33Z"/></g></g></svg>