<svg xmlns="http://www.w3.org/2000/svg" xmlns:xlink="http://www.w3.org/1999/xlink" viewBox="0 0 121.02 37.16"><defs><style>.cls-1{fill:#fff;}.cls-2{clip-path:url(#clip-path);}</style><clipPath id="clip-path"><path class="cls-1" d="M17,33.5a5.76,5.76,0,0,0,2.91.44,16.75,16.75,0,0,0,4.62-1.41,21.67,21.67,0,0,1-14.82-7s3,6.15,7.29,7.92m-.81-5.13s6,3.22,10.56,2.13a5.86,5.86,0,0,0,2.62-1.37,16.57,16.57,0,0,0,2.9-3.85,21.66,21.66,0,0,1-16.08,3.09M7.32,30.2a5.71,5.71,0,0,0,2.1,2.07A17.13,17.13,0,0,0,14,33.84,21.7,21.7,0,0,1,6.08,19.5s-1.2,6.73,1.24,10.7m15.75-3.38s6.77-.94,9.79-4.49a5.82,5.82,0,0,0,1.31-2.64,16.6,16.6,0,0,0,.09-4.82,21.7,21.7,0,0,1-11.19,12m-21.62-5a5.75,5.75,0,0,0,.48,2.91A16.79,16.79,0,0,0,4.7,28.71a21.65,21.65,0,0,1,2-16.24S1.8,17.21,1.45,21.85m.15-10.2A5.79,5.79,0,0,0,.28,14.29,17,17,0,0,0,.2,19.11,21.67,21.67,0,0,1,11.39,7.16S4.62,8.1,1.6,11.65m26.13,9.86s4.92-4.74,5.28-9.39a5.78,5.78,0,0,0-.48-2.91,17.3,17.3,0,0,0-2.77-4,21.68,21.68,0,0,1-2,16.25m-20-18A5.8,5.8,0,0,0,5.11,4.84,17,17,0,0,0,2.2,8.69,21.71,21.71,0,0,1,18.28,5.61,21.25,21.25,0,0,0,9.77,3.25a8.56,8.56,0,0,0-2,.23m20.65,11s1.2-6.73-1.24-10.69A5.79,5.79,0,0,0,25,1.71,16.79,16.79,0,0,0,20.48.14a21.67,21.67,0,0,1,7.9,14.33M14.56,0A16.79,16.79,0,0,0,10,1.45a21.67,21.67,0,0,1,14.82,7s-3-6.15-7.29-7.92A6,6,0,0,0,15.19,0a4.64,4.64,0,0,0-.63,0"/></clipPath></defs><title>Recurso 1</title><g id="Capa_2" data-name="Capa 2"><g id="Layer_1" data-name="Layer 1"><path class="cls-1" d="M77.22,36.94a3,3,0,0,1-1.19.21,2.11,2.11,0,0,1-2.24-2.29,2.25,2.25,0,0,1,2.36-2.37,2.47,2.47,0,0,1,1.08.2l-.14.47a2.27,2.27,0,0,0-.92-.18,1.67,1.67,0,0,0-1.76,1.86,1.65,1.65,0,0,0,1.74,1.82,2.23,2.23,0,0,0,.95-.19Z"/><path class="cls-1" d="M77.91,34.85c0-.38,0-.71,0-1h.51l0,.64h0a1,1,0,0,1,.9-.71l.17,0v.56a.62.62,0,0,0-.2,0,.83.83,0,0,0-.8.76,2.13,2.13,0,0,0,0,.27v1.73h-.59Z"/><path class="cls-1" d="M80.37,35.57a1,1,0,0,0,1.11,1.12,2.19,2.19,0,0,0,.9-.16l.1.42a2.66,2.66,0,0,1-1.08.2,1.5,1.5,0,0,1-1.59-1.64,1.57,1.57,0,0,1,1.52-1.75,1.37,1.37,0,0,1,1.34,1.53,1.8,1.8,0,0,1,0,.28Zm1.73-.43a.84.84,0,0,0-.82-1,1,1,0,0,0-.9,1Z"/><path class="cls-1" d="M85.2,37.08l0-.41h0a1.22,1.22,0,0,1-1,.49.93.93,0,0,1-1-.94c0-.78.7-1.21,1.95-1.2V35a.67.67,0,0,0-.74-.75,1.59,1.59,0,0,0-.84.24l-.14-.39a2.07,2.07,0,0,1,1.07-.29c1,0,1.24.68,1.24,1.33v1.22a4.53,4.53,0,0,0,0,.77Zm-.08-1.65c-.65,0-1.38.1-1.38.73a.52.52,0,0,0,.56.56.8.8,0,0,0,.78-.54.65.65,0,0,0,0-.19Z"/><path class="cls-1" d="M86.64,34.71c0-.33,0-.61,0-.88h.53l0,.54h0a1.2,1.2,0,0,1,1.08-.61c.45,0,1.15.27,1.15,1.38v1.94h-.6V35.21c0-.52-.19-1-.75-1a.84.84,0,0,0-.79.61.73.73,0,0,0,0,.27v1.95h-.59Z"/><path class="cls-1" d="M93.17,32.32v3.92c0,.29,0,.62,0,.84h-.53l0-.56h0a1.21,1.21,0,0,1-1.11.64,1.48,1.48,0,0,1-1.39-1.65,1.55,1.55,0,0,1,1.46-1.75,1.1,1.1,0,0,1,1,.5h0V32.32Zm-.59,2.84a1,1,0,0,0,0-.25.86.86,0,0,0-.85-.69c-.61,0-1,.54-1,1.26s.32,1.2,1,1.2a.88.88,0,0,0,.86-.7,1,1,0,0,0,0-.26Z"/><path class="cls-1" d="M97.09,35.43a1.59,1.59,0,0,1-1.62,1.73,1.54,1.54,0,0,1-1.55-1.67,1.59,1.59,0,0,1,1.61-1.73A1.54,1.54,0,0,1,97.09,35.43Zm-2.58,0c0,.71.41,1.24,1,1.24s1-.53,1-1.26c0-.55-.28-1.25-1-1.25S94.51,34.85,94.51,35.47Z"/><path class="cls-1" d="M99.28,32.56h2.44v.49H99.86v1.5h1.72V35H99.86v2h-.58Z"/><path class="cls-1" d="M105,36.2c0,.33,0,.63,0,.88h-.52l0-.53h0a1.22,1.22,0,0,1-1.08.61c-.51,0-1.12-.28-1.12-1.43v-1.9h.59v1.8c0,.62.19,1,.73,1a.86.86,0,0,0,.78-.54.94.94,0,0,0,0-.3v-2H105Z"/><path class="cls-1" d="M106.7,32.9v.93h.85v.45h-.85V36c0,.4.12.63.45.63a1.31,1.31,0,0,0,.34,0l0,.44a1.44,1.44,0,0,1-.53.08.85.85,0,0,1-.64-.25,1.23,1.23,0,0,1-.22-.84V34.28h-.51v-.45h.51v-.77Z"/><path class="cls-1" d="M110.93,36.2c0,.33,0,.63,0,.88h-.52l0-.53h0a1.22,1.22,0,0,1-1.08.61c-.51,0-1.12-.28-1.12-1.43v-1.9h.59v1.8c0,.62.19,1,.73,1a.86.86,0,0,0,.78-.54.94.94,0,0,0,0-.3v-2h.59Z"/><path class="cls-1" d="M111.91,34.85c0-.38,0-.71,0-1h.51l0,.64h0a1,1,0,0,1,.9-.71l.17,0v.56a.62.62,0,0,0-.2,0,.83.83,0,0,0-.8.76,2.13,2.13,0,0,0,0,.27v1.73h-.59Z"/><path class="cls-1" d="M117,35.43a1.59,1.59,0,0,1-1.62,1.73,1.54,1.54,0,0,1-1.55-1.67,1.59,1.59,0,0,1,1.61-1.73A1.54,1.54,0,0,1,117,35.43Zm-2.58,0c0,.71.41,1.24,1,1.24s1-.53,1-1.26c0-.55-.28-1.25-1-1.25S114.4,34.85,114.4,35.47Z"/><path class="cls-1" d="M17,33.5a5.76,5.76,0,0,0,2.91.44,16.75,16.75,0,0,0,4.62-1.41,21.67,21.67,0,0,1-14.82-7s3,6.15,7.29,7.92m-.81-5.13s6,3.22,10.56,2.13a5.86,5.86,0,0,0,2.62-1.37,16.57,16.57,0,0,0,2.9-3.85,21.66,21.66,0,0,1-16.08,3.09M7.32,30.2a5.71,5.71,0,0,0,2.1,2.07A17.13,17.13,0,0,0,14,33.84,21.7,21.7,0,0,1,6.08,19.5s-1.2,6.73,1.24,10.7m15.75-3.38s6.77-.94,9.79-4.49a5.82,5.82,0,0,0,1.31-2.64,16.6,16.6,0,0,0,.09-4.82,21.7,21.7,0,0,1-11.19,12m-21.62-5a5.75,5.75,0,0,0,.48,2.91A16.79,16.79,0,0,0,4.7,28.71a21.65,21.65,0,0,1,2-16.24S1.8,17.21,1.45,21.85m.15-10.2A5.79,5.79,0,0,0,.28,14.29,17,17,0,0,0,.2,19.11,21.67,21.67,0,0,1,11.39,7.16S4.62,8.1,1.6,11.65m26.13,9.86s4.92-4.74,5.28-9.39a5.78,5.78,0,0,0-.48-2.91,17.3,17.3,0,0,0-2.77-4,21.68,21.68,0,0,1-2,16.25m-20-18A5.8,5.8,0,0,0,5.11,4.84,17,17,0,0,0,2.2,8.69,21.71,21.71,0,0,1,18.28,5.61,21.25,21.25,0,0,0,9.77,3.25a8.56,8.56,0,0,0-2,.23m20.65,11s1.2-6.73-1.24-10.69A5.79,5.79,0,0,0,25,1.71,16.79,16.79,0,0,0,20.48.14a21.67,21.67,0,0,1,7.9,14.33M14.56,0A16.79,16.79,0,0,0,10,1.45a21.67,21.67,0,0,1,14.82,7s-3-6.15-7.29-7.92A6,6,0,0,0,15.19,0a4.64,4.64,0,0,0-.63,0"/><g class="cls-2"><rect class="cls-1" width="34.46" height="34.06"/></g><path class="cls-1" d="M46.08,22.88c-3.52,0-5.68-2.34-5.68-5.8a5.48,5.48,0,0,1,5.68-5.79,7.2,7.2,0,0,1,2.93.58l-.11,1a5.82,5.82,0,0,0-2.87-.6c-2.9,0-4.57,2.07-4.57,4.84s1.67,4.85,4.63,4.85a6.51,6.51,0,0,0,2.43-.42v-4h-2.7v-.89h3.71v5.54a8.45,8.45,0,0,1-3.45.73"/><path class="cls-1" d="M55.55,15.22a2.14,2.14,0,0,0-.65-.1c-1.75,0-2.08,2-2.08,3.3v4.27h-.9V16.31a18.93,18.93,0,0,0-.09-2h.83l.06,1.57a2.58,2.58,0,0,1,2.18-1.73,3,3,0,0,1,.72.06Z"/><path class="cls-1" d="M62.66,22.69l0-1.45a2.92,2.92,0,0,1-2.7,1.64c-2.17,0-2.78-1.5-2.78-3.44V14.32H58v5c0,1.41.29,2.69,2,2.69,1.87,0,2.46-1.6,2.46-3.2V14.32h.91V20.7a18.92,18.92,0,0,0,.08,2Z"/><path class="cls-1" d="M69.44,22.88a2.78,2.78,0,0,1-2.58-1.55v4.44H66V17.24c0-1,0-1.94-.08-2.92h.86l.07,1.49a3,3,0,0,1,2.64-1.65c2.56,0,3.38,2.1,3.38,4.32s-.91,4.4-3.38,4.4M69.35,15c-1.83,0-2.52,1.9-2.52,3.45S67.49,22,69.35,22s2.48-1.9,2.48-3.52S71.36,15,69.35,15"/><path class="cls-1" d="M78.12,22.88c-2.55,0-3.78-2.06-3.78-4.4s1.34-4.32,3.78-4.32c2.6,0,3.79,1.93,3.79,4.32s-1.24,4.4-3.79,4.4m0-7.85c-2,0-2.79,1.74-2.79,3.45S76.15,22,78.12,22s2.8-1.82,2.8-3.52S80.14,15,78.12,15"/><polygon class="cls-1" points="88.86 13.45 88.86 22.69 86.35 22.69 86.35 13.45 82.84 13.45 82.84 11.46 92.38 11.46 92.38 13.45 88.86 13.45"/><path class="cls-1" d="M94,19.05a2.35,2.35,0,0,0,2.52,2.38,5.87,5.87,0,0,0,2.55-.57l.1,1.56a9.67,9.67,0,0,1-3.12.46c-2.83,0-4.36-1.65-4.36-4.45a4.09,4.09,0,0,1,4.13-4.36c2.71,0,3.78,1.9,3.78,4.46v.52Zm1.83-3.58c-1.29,0-1.83,1.34-1.83,2.34h3.48c0-1.06-.37-2.34-1.65-2.34"/><path class="cls-1" d="M106.33,16.23a2.05,2.05,0,0,0-.72-.12c-1.57,0-2.09,1.5-2.09,2.81v3.77H101.2V16.12a16.55,16.55,0,0,0-.09-1.86h2.19l0,1.63a2.74,2.74,0,0,1,2.37-1.84,2.19,2.19,0,0,1,.68.09Z"/><path class="cls-1" d="M112.81,16.23a2.05,2.05,0,0,0-.72-.12c-1.57,0-2.09,1.5-2.09,2.81v3.77h-2.32V16.12a16.55,16.55,0,0,0-.09-1.86h2.19l0,1.63a2.74,2.74,0,0,1,2.37-1.84,2.19,2.19,0,0,1,.68.09Z"/><path class="cls-1" d="M118.77,22.69l0-1.31a3.26,3.26,0,0,1-2.7,1.5c-1.55,0-2.86-.76-2.86-2.45,0-2.23,2.15-3,4.53-3,.3,0,.69,0,1,0v-.28c0-1.18-.74-1.69-2-1.69a4.94,4.94,0,0,0-2.56.68l-.1-1.57a10,10,0,0,1,3-.54c2.27,0,3.91.81,3.91,3.28V20.7a16,16,0,0,0,.08,2Zm-.07-4h-.3c-1.18,0-3,.13-3,1.6,0,.82.69,1.16,1.4,1.16,1.41,0,1.92-1.1,1.92-2.34Z"/></g></g></svg>